Coordinates
version=1
nRows=12
nColumns=44
inDegrees=yes

Units are S.I. units (second, meters, Newtons, ...)
Angles are in degrees.

endheader
time	pelvis_tilt	pelvis_list	pelvis_rotation	pelvis_tx	pelvis_ty	pelvis_tz	hip_flexion_r	hip_adduction_r	hip_rotation_r	knee_angle_r	knee_adduction_r	knee_rotation_r	knee_angle_r_beta	ankle_angle_r	ankle_adduction_r	ankle_rotation_r	hip_flexion_l	hip_adduction_l	hip_rotation_l	knee_angle_l	knee_adduction_l	knee_rotation_l	knee_angle_l_beta	ankle_angle_l	ankle_adduction_l	ankle_rotation_l	lumbar_extension	lumbar_bending	lumbar_rotation	arm_flex_r	arm_add_r	arm_rot_r	elbow_flex_r	pro_sup_r	wrist_flex_r	wrist_dev_r	arm_flex_l	arm_add_l	arm_rot_l	elbow_flex_l	pro_sup_l	wrist_flex_l	wrist_dev_l
      0.38000000	    -13.74134486	     -1.19473170	     -5.76959546	      1.47828478	      0.97714083	      0.01008336	     43.45569274	      6.27670339	      9.04052014	     33.40497243	      1.18259860	     -3.13486111	      0.58302676	     -2.33216328	      6.36877005	     -0.60484991	    -15.33034003	      0.14090349	    -13.79077622	     12.97095094	     -1.15341884	      1.20343147	      0.22638580	    -35.99138361	     11.76567632	      2.61858320	      3.01898619	      3.35630002	     -3.07034137	    -34.02306512	    -19.47855417	     -7.07797996	     98.99082891	     32.88262183	      0.00000000	      0.00000000	     -2.98525690	    -20.53709128	     18.77998501	    140.21321742	     36.59912823	      0.00000000	      0.00000000
      0.38500002	    -13.71353741	     -0.73982084	     -5.63559332	      1.49694349	      0.97769010	      0.01007770	     42.90541959	      5.60621003	      8.99521700	     30.59932185	      1.13137235	     -3.00278887	      0.53405892	     -2.12730946	      6.45514606	     -0.10940754	    -15.70555256	      0.69359816	    -13.86243846	     13.66230035	     -1.39172058	      1.95854428	      0.23845212	    -35.56199714	     11.53267757	      2.65642502	      3.19439206	      2.93970446	     -3.43126686	    -34.39525332	    -19.31961409	     -7.56348234	     99.36921726	     32.96434989	      0.00000000	      0.00000000	     -3.27074572	    -20.84901582	     19.17188150	    140.79033826	     36.66724938	      0.00000000	      0.00000000
      0.39000002	    -13.64327815	     -0.49492837	     -5.62785613	      1.51558396	      0.97798780	      0.01056726	     42.24366590	      5.30272972	      9.07869134	     27.83282853	      0.95099363	     -3.42690606	      0.48577450	     -2.20321787	      6.77953676	      0.51189323	    -16.03473210	      0.93844917	    -14.63121780	     14.63686617	     -1.43050347	      3.92896069	      0.25546151	    -34.37474568	     10.49197004	      1.80322629	      3.29239503	      2.73600229	     -3.46561521	    -34.90659756	    -18.93154230	     -8.31648881	     99.76877962	     33.15343173	      0.00000000	      0.00000000	     -3.29257244	    -21.21278864	     19.90558242	    141.17576632	     36.84401455	      0.00000000	      0.00000000
      0.39500001	    -13.59363838	     -0.11351044	     -5.49433287	      1.53411824	      0.97806993	      0.01057886	     41.66163977	      4.70969387	      8.96888371	     25.26831855	      0.93388370	     -3.28656615	      0.44101536	     -1.99529156	      6.85335412	      1.05025315	    -16.25329862	      1.37096634	    -14.36952481	     15.74329466	     -1.67433166	      4.05492401	      0.27477233	    -33.74553485	     10.37295592	      1.84962644	      3.42095998	      2.39281522	     -3.78795374	    -35.15361928	    -18.81953527	     -8.67343808	    100.10699342	     33.21638264	      0.00000000	      0.00000000	     -3.48988747	    -21.39641177	     20.24107072	    141.56143864	     36.88910524	      0.00000000	      0.00000000
      0.40000001	    -13.53071252	      0.18933841	     -5.41435867	      1.55252167	      0.97791961	      0.01077600	     41.07115833	      4.26204959	      8.82419058	     22.84915686	      0.85504935	     -3.30675938	      0.39879302	     -1.86260502	      6.95620198	      1.52933472	    -16.40240032	      1.69404227	    -14.05273338	     17.04993180	     -1.87671018	      4.00083648	      0.29757745	    -32.94934695	     10.25622287	      1.78992092	      3.49838689	      2.13304629	     -3.97315205	    -35.43533500	    -18.60744989	     -9.09020066	    100.45326167	     33.28166701	      0.00000000	      0.00000000	     -3.71219508	    -21.72708202	     20.65544157	    141.89830606	     36.91700513	      0.00000000	      0.00000000
      0.40500000	    -13.41913350	      0.40034773	     -5.35888236	      1.57080995	      0.97764849	      0.01114685	     40.42678824	      3.99852792	      8.81913508	     20.62538188	      0.58815421	     -4.05899091	      0.35998082	     -2.19581296	      7.43573704	      2.31810783	    -16.55528644	      1.85388491	    -13.22781140	     18.56972352	     -1.78975705	      3.68578851	      0.32410282	    -31.56553846	      9.98190196	      1.30441390	      3.49099325	      1.96321046	     -3.94139291	    -35.77585935	    -18.20316483	     -9.86407009	    100.78883734	     33.41809546	      0.00000000	      0.00000000	     -3.62194862	    -22.14813382	     21.60139542	    142.03572447	     36.99192689	      0.00000000	      0.00000000
      0.41000000	    -13.31418452	      0.60016158	     -5.29106055	      1.58908698	      0.97712632	      0.01157143	     39.82477897	      3.72396714	      8.60160227	     18.62400762	      0.43291002	     -4.20612868	      0.32505025	     -2.06422178	      7.58682859	      2.80105959	    -16.60793549	      1.95796321	    -12.60275662	     20.20404241	     -1.77912817	      3.01237609	      0.35262706	    -30.77173085	     10.03545298	      1.14922311	      3.48592602	      1.78402518	     -4.11356993	    -35.95328076	    -18.07104521	    -10.24418245	    101.10821247	     33.49057105	      0.00000000	      0.00000000	     -3.83109888	    -22.36173974	     22.02899010	    142.23871364	     37.03494194	      0.00000000	      0.00000000
      0.41500002	    -13.17184334	      0.82178678	     -5.32806553	      1.60732878	      0.97645062	      0.01202428	     39.23560618	      3.46926347	      8.41409156	     16.88038076	      0.38002567	     -4.12763125	      0.29461822	     -1.87443082	      7.68781056	      3.30483071	    -16.66561258	      2.17104777	    -12.07328116	     21.82664754	     -1.84904588	      2.19960638	      0.38094686	    -30.25368417	     10.17474680	      0.85878668	      3.43916888	      1.60813648	     -4.10956631	    -36.07444756	    -17.92965435	    -10.56450445	    101.34819944	     33.54355552	      0.00000000	      0.00000000	     -3.94787842	    -22.58872189	     22.27487610	    142.29626194	     37.05576186	      0.00000000	      0.00000000
      0.42000002	    -13.02690649	      1.04696685	     -5.32740899	      1.62543429	      0.97559950	      0.01248990	     38.68691952	      3.22352449	      8.13643495	     15.37794386	      0.25858630	     -4.14399754	      0.26839575	     -1.87358576	      8.12927599	      3.73263089	    -16.68341069	      2.31160348	    -10.59742911	     23.60861395	     -1.64632942	     -0.19984559	      0.41204805	    -29.79619685	     10.59543954	      1.29953556	      3.37011504	      1.40292484	     -4.00662369	    -36.23229175	    -17.60990892	    -11.13170221	    101.53360290	     33.68170453	      0.00000000	      0.00000000	     -3.95621358	    -22.91009065	     22.96138864	    142.21684423	     37.20631256	      0.00000000	      0.00000000
      0.42500001	    -12.82359072	      1.22164077	     -5.48492140	      1.64352026	      0.97453864	      0.01327943	     38.09745174	      3.10566158	      7.89634106	     14.07872965	      0.27668599	     -3.82465268	      0.24572019	     -1.66111907	      8.14131353	      4.07894996	    -16.65872212	      2.46641968	    -10.43434846	     25.44578093	     -1.72073032	     -0.91690094	      0.44411266	    -29.50396259	     10.69495081	      0.98126297	      3.21805366	      1.25898885	     -3.86876355	    -36.19494660	    -17.53962837	    -11.30038158	    101.68350239	     33.71427348	      0.00000000	      0.00000000	     -4.18742188	    -23.07601113	     23.22600946	    142.17780699	     37.19845830	      0.00000000	      0.00000000
      0.43000001	    -12.67350831	      1.38505928	     -5.48531973	      1.66145987	      0.97330511	      0.01378069	     37.59452065	      2.90314804	      7.36540316	     12.98191392	      0.37963978	     -2.81285088	      0.22657714	     -1.37220187	      8.20554160	      3.47314716	    -16.48579223	      2.51568216	     -9.23745643	     27.52634017	     -1.51021255	     -3.35139480	      0.48042527	    -29.03720287	     10.91675155	      1.65657535	      3.10003206	      1.12619798	     -3.73805264	    -36.21183012	    -17.24057202	    -11.81782050	    101.82523671	     33.84068016	      0.00000000	      0.00000000	     -4.20525324	    -23.36471131	     24.00681591	    141.91695042	     37.27246581	      0.00000000	      0.00000000
      0.43500000	    -12.41067737	      1.53229709	     -5.70072023	      1.67938686	      0.97191521	      0.01469422	     37.03485685	      2.83321944	      7.20752984	     12.20322393	      0.51771997	     -2.51110849	      0.21298644	     -1.27027401	      8.18109552	      3.68059816	    -16.37576063	      2.62602501	     -9.23491062	     29.53383468	     -1.51828665	     -3.91412896	      0.51546266	    -28.85406319	     10.94679486	      1.31222119	      2.84635612	      1.01706868	     -3.52063732	    -36.03200202	    -17.17806770	    -11.90718761	    101.95215094	     33.86618892	      0.00000000	      0.00000000	     -4.46148528	    -23.52700474	     24.15277374	    141.72824845	     37.25035476	      0.00000000	      0.00000000
